Coordinates
version=1
nRows=28
nColumns=38
inDegrees=no

Units are S.I. units (second, meters, Newtons, ...)
If the header above contains a line with 'inDegrees', this indicates whether rotational values are in degrees (yes) or radians (no).

endheader
time	pelvis_tilt	pelvis_list	pelvis_rotation	pelvis_tx	pelvis_ty	pelvis_tz	hip_flexion_r	hip_adduction_r	hip_rotation_r	knee_angle_r	ankle_angle_r	subtalar_angle_r	mtp_angle_r	hip_flexion_l	hip_adduction_l	hip_rotation_l	knee_angle_l	ankle_angle_l	subtalar_angle_l	mtp_angle_l	lumbar_extension	lumbar_bending	lumbar_rotation	arm_flex_r	arm_add_r	arm_rot_r	elbow_flex_r	pro_sup_r	wrist_flex_r	wrist_dev_r	arm_flex_l	arm_add_l	arm_rot_l	elbow_flex_l	pro_sup_l	wrist_flex_l	wrist_dev_l
0.83	0.389402	1.4752	-1.94948	0.75511	1.27952	0.944724	0.343152	-0.244587	-0.249064	0.985901	0.0964532	0	0	-0.164598	0.102749	-0.150518	0.0603134	0.0940725	0	0	-0.141735	-0.0317188	-0.0305904	-0.168767	-0.311734	0.167231	0.772935	1.36629	0	0	0.0274132	-0.372103	0.552165	0.617378	0.778784	0	0
0.84	0.347525	1.47529	-1.90476	0.755827	1.27186	0.944893	0.347848	-0.240076	-0.264075	0.943225	0.105473	0	0	-0.181784	0.0998613	-0.142181	0.0475461	0.0930377	0	0	-0.145611	-0.0263888	-0.0348898	-0.166799	-0.311953	0.168835	0.775345	1.36853	0	0	0.0322703	-0.374334	0.540643	0.623271	0.778069	0	0
0.85	0.312887	1.47584	-1.86771	0.756448	1.26416	0.944832	0.352219	-0.235581	-0.27975	0.89774	0.112782	0	0	-0.198363	0.0973569	-0.134872	0.0343782	0.0920388	0	0	-0.148494	-0.0216308	-0.0383769	-0.164889	-0.312075	0.170955	0.776705	1.37359	0	0	0.0374686	-0.376662	0.530832	0.628921	0.778205	0	0
0.86	0.285197	1.47673	-1.83755	0.757035	1.25644	0.944562	0.356097	-0.231242	-0.296334	0.8498	0.118709	0	0	-0.21441	0.095287	-0.127654	0.0209337	0.0909731	0	0	-0.150709	-0.0174046	-0.0415327	-0.163103	-0.31169	0.170234	0.778624	1.36761	0	0	0.0431453	-0.378862	0.522716	0.63397	0.779241	0	0
0.87	0.26502	1.47827	-1.81532	0.757484	1.24871	0.944062	0.360175	-0.226738	-0.313186	0.799924	0.123537	0	0	-0.229457	0.0936368	-0.120917	0.00774966	0.0903366	0	0	-0.152014	-0.0139069	-0.0439564	-0.161348	-0.311019	0.16975	0.779645	1.36167	0	0	0.0491347	-0.381072	0.515907	0.638672	0.781008	0	0
0.88	0.259994	1.48099	-1.80854	0.757862	1.24105	0.943267	0.365824	-0.22303	-0.330659	0.749347	0.127347	0	0	-0.241825	0.0929251	-0.116326	0	0.0912571	0	0	-0.151801	-0.0116993	-0.0458131	-0.159569	-0.310356	0.17167	0.779675	1.36252	0	0	0.0555499	-0.383257	0.510511	0.643099	0.782983	0	0
0.89	0.270398	1.48492	-1.81774	0.758102	1.23336	0.94217	0.373187	-0.219781	-0.348001	0.698657	0.13063	0	0	-0.251169	0.093104	-0.115594	0	0.0945246	0	0	-0.149939	-0.0107342	-0.0468576	-0.158184	-0.309415	0.173776	0.779036	1.36469	0	0	0.0621726	-0.385651	0.507358	0.647247	0.784948	0	0
0.9	0.286571	1.4893	-1.83299	0.758216	1.22568	0.940884	0.38061	-0.215702	-0.365186	0.646801	0.133078	0	0	-0.259779	0.0934309	-0.114587	0	0.0986441	0	0	-0.147718	-0.010073	-0.0473982	-0.156813	-0.308398	0.176206	0.777587	1.3684	0	0	0.0686612	-0.38788	0.504028	0.651611	0.78833	0	0
0.91	0.29185	1.49282	-1.84177	0.75852	1.21844	0.939678	0.385438	-0.216448	-0.387555	0.593791	0.140724	0	0	-0.25813	0.0957046	-0.110886	0	0.102371	0	0	-0.147363	-0.00790872	-0.0450589	-0.153779	-0.308421	0.179426	0.775494	1.3742	0	0	0.0745597	-0.388988	0.500643	0.65554	0.794278	0	0
0.92	0.329759	1.49862	-1.87948	0.758181	1.21085	0.937987	0.395055	-0.209684	-0.40085	0.542651	0.143622	0	0	-0.261332	0.0962548	-0.111629	0	0.108044	0	0	-0.143536	-0.00857471	-0.0445661	-0.151882	-0.306397	0.180056	0.772769	1.37781	0	0	0.0809154	-0.390781	0.496967	0.658986	0.802889	0	0
0.93	0.381719	1.50507	-1.93111	0.757707	1.2032	0.936119	0.405429	-0.202242	-0.411514	0.492245	0.147638	0	0	-0.263348	0.0969956	-0.11209	0	0.113967	0	0	-0.138827	-0.00939005	-0.0442197	-0.149892	-0.304332	0.182093	0.768631	1.38249	0	0	0.0872574	-0.392239	0.493563	0.661655	0.81251	0	0
0.94	0.44737	1.51169	-1.99621	0.75734	1.19573	0.934154	0.415537	-0.193983	-0.420182	0.442211	0.152947	0	0	-0.264731	0.0975655	-0.112064	0	0.120207	0	0	-0.134059	-0.00998222	-0.0442943	-0.147188	-0.302673	0.186382	0.763198	1.38963	0	0	0.0934604	-0.39317	0.489793	0.663596	0.823626	0	0
0.95	0.523919	1.5184	-2.07317	0.756778	1.18817	0.932104	0.425136	-0.183797	-0.423644	0.392627	0.158258	0	0	-0.265967	0.097663	-0.113023	0	0.12698	0	0	-0.129028	-0.0101716	-0.0432173	-0.144201	-0.300476	0.187261	0.75753	1.39221	0	0	0.099449	-0.39364	0.486087	0.66491	0.835819	0	0
0.96	0.608879	1.52476	-2.159	0.756074	1.18051	0.930058	0.433138	-0.171882	-0.421569	0.343074	0.161386	0	0	-0.267654	0.0971235	-0.114399	0	0.1341	0	0	-0.124109	-0.00982729	-0.0413671	-0.141414	-0.298681	0.191412	0.750144	1.39806	0	0	0.105618	-0.393306	0.482689	0.664688	0.848484	0	0
0.97	0.699632	1.53048	-2.25057	0.755469	1.17285	0.928068	0.438867	-0.158723	-0.414234	0.293737	0.160499	0	0	-0.270122	0.0959507	-0.115766	0	0.141521	0	0	-0.120174	-0.00870297	-0.0394922	-0.138308	-0.296991	0.195494	0.742071	1.40613	0	0	0.112015	-0.392098	0.479023	0.66309	0.862083	0	0
0.98	0.802935	1.535	-2.35458	0.75477	1.16493	0.926147	0.442463	-0.145963	-0.402403	0.246936	0.156282	0	0	-0.273777	0.0949145	-0.117539	0	0.14895	0	0	-0.117033	-0.0073933	-0.0378573	-0.135154	-0.294906	0.195335	0.734584	1.40869	0	0	0.117767	-0.390307	0.475017	0.661099	0.875309	0	0
0.99	0.911013	1.53847	-2.46283	0.754142	1.1568	0.924301	0.443064	-0.133585	-0.385559	0.202243	0.149177	0	0	-0.278524	0.0936632	-0.11919	0	0.156492	0	0	-0.114713	-0.00579935	-0.0367465	-0.132134	-0.292839	0.194547	0.726972	1.40717	0	0	0.123073	-0.388109	0.471245	0.658664	0.888051	0	0
1	0.996494	1.53993	-2.54629	0.753732	1.14851	0.922617	0.442185	-0.125074	-0.372284	0.167628	0.143816	0	0	-0.285359	0.0924337	-0.117804	0	0.162631	0	0	-0.114708	-0.00423245	-0.0381543	-0.129012	-0.292082	0.199418	0.718968	1.4108	0	0	0.128143	-0.386108	0.468759	0.656475	0.898105	0	0
1.01	1.03628	1.54069	-2.5837	0.753321	1.13991	0.921091	0.439172	-0.117449	-0.357775	0.140243	0.137502	0	0	-0.294097	0.0905148	-0.116624	0	0.168902	0	0	-0.11593	-0.00196439	-0.0400028	-0.126062	-0.291601	0.204561	0.710485	1.41688	0	0	0.132515	-0.383602	0.466293	0.653599	0.906938	0	0
1.02	1.0333	1.54078	-2.57767	0.753019	1.13113	0.919724	0.43666	-0.112178	-0.347396	0.126008	0.132854	0	0	-0.3046	0.0881696	-0.115102	0	0.174954	0	0	-0.118367	0.000782134	-0.0421806	-0.123896	-0.290903	0.205576	0.703109	1.41968	0	0	0.136311	-0.380615	0.464198	0.650594	0.913793	0	0
1.03	0.992757	1.53985	-2.53271	0.752839	1.12185	0.918519	0.435656	-0.110303	-0.344104	0.126869	0.130783	0	0	-0.31682	0.0856967	-0.11188	0	0.180356	0	0	-0.121988	0.0037645	-0.0456221	-0.122527	-0.290567	0.205586	0.696561	1.42081	0	0	0.139298	-0.377542	0.463205	0.647858	0.918412	0	0
1.04	0.943812	1.53823	-2.47882	0.752777	1.11242	0.917426	0.436973	-0.111212	-0.347412	0.142198	0.131241	0	0	-0.330042	0.0832225	-0.107816	0	0.185081	0	0	-0.125648	0.00674258	-0.049522	-0.122117	-0.290684	0.206085	0.690397	1.42201	0	0	0.141196	-0.374381	0.463494	0.644999	0.921328	0	0
1.05	0.969337	1.53619	-2.49838	0.752651	1.10199	0.916239	0.440605	-0.117737	-0.358071	0.167891	0.136776	0	0	-0.34956	0.0784776	-0.111729	0	0.19278	0	0	-0.125955	0.00785583	-0.053994	-0.123521	-0.290683	0.206635	0.684195	1.42299	0	0	0.141188	-0.371024	0.463989	0.642016	0.92329	0	0
1.06	0.962128	1.53315	-2.48542	0.752594	1.09196	0.915174	0.444843	-0.123902	-0.366235	0.202619	0.141954	0	0	-0.358713	0.076665	-0.107783	0	0.197295	0	0	-0.12817	0.00914677	-0.0587665	-0.124818	-0.290905	0.206787	0.678451	1.42342	0	0	0.140392	-0.367865	0.464342	0.640609	0.923957	0	0
1.07	0.980053	1.53001	-2.49639	0.752622	1.08161	0.91413	0.447769	-0.131088	-0.372954	0.238313	0.146162	0	0	-0.365759	0.0748694	-0.104612	0.00502863	0.201917	0	0	-0.128787	0.00990367	-0.0648284	-0.127038	-0.290943	0.206447	0.672561	1.42347	0	0	0.137985	-0.364742	0.464633	0.639161	0.923432	0	0
1.08	0.998198	1.52796	-2.50474	0.752779	1.07084	0.91322	0.446937	-0.137171	-0.37855	0.267982	0.149527	0	0	-0.369477	0.070517	-0.10468	0.0230497	0.208792	0	0	-0.127433	0.0116299	-0.0734432	-0.130087	-0.290651	0.206144	0.665607	1.42277	0	0	0.133761	-0.361745	0.464784	0.63864	0.921838	0	0
1.09	1.01798	1.52612	-2.5155	0.752674	1.06	0.91244	0.444164	-0.140771	-0.379715	0.290036	0.152626	0	0	-0.370259	0.0653635	-0.109533	0.0464943	0.217087	0	0	-0.125869	0.0133382	-0.0813258	-0.133288	-0.290075	0.204406	0.659182	1.42026	0	0	0.128719	-0.359077	0.46526	0.638405	0.919286	0	0
1.1	1.0478	1.52521	-2.53844	0.752191	1.04916	0.911757	0.441847	-0.141215	-0.376938	0.304809	0.150588	0	0	-0.367631	0.0595219	-0.118611	0.0744328	0.225252	0	0	-0.123492	0.0154524	-0.0873206	-0.136173	-0.289349	0.201556	0.652794	1.41579	0	0	0.122859	-0.356242	0.465386	0.637828	0.916123	0	0
